<svg xmlns="http://www.w3.org/2000/svg" xmlns:xlink="http://www.w3.org/1999/xlink" version="1.1" x="0px" y="0px" viewBox="0 0 90 90" style="enable-background:new 0 0 90 90;" xml:space="preserve"><g><path d="M60.3,35.06h-2.88c-0.28,0-0.5,0.22-0.5,0.5c0,0.28,0.22,0.5,0.5,0.5h2.88c0.28,0,0.5-0.22,0.5-0.5   C60.8,35.29,60.58,35.06,60.3,35.06z"/><path d="M60.3,29.05h-2.88c-0.28,0-0.5,0.22-0.5,0.5s0.22,0.5,0.5,0.5h2.88c0.28,0,0.5-0.22,0.5-0.5S60.58,29.05,60.3,29.05z"/><path d="M60.3,23.03h-2.88c-0.28,0-0.5,0.22-0.5,0.5c0,0.28,0.22,0.5,0.5,0.5h2.88c0.28,0,0.5-0.22,0.5-0.5   C60.8,23.25,60.58,23.03,60.3,23.03z"/><path d="M71.35,82.19h-1.23V57.96c0-0.2-0.08-0.39-0.22-0.53c-0.14-0.14-0.33-0.22-0.53-0.22h-1.01   c-0.01-3.66-0.02-7.33-0.03-10.99c0.01-0.06,0.03-0.11,0.03-0.17v-4.44c0-0.2-0.08-0.39-0.22-0.53c-0.14-0.14-0.33-0.22-0.53-0.22   h-3.73c-0.02-9.15-0.03-18.31-0.05-27.46c0-0.3-0.18-0.57-0.46-0.69c-5.42-2.28-10.85-4.56-16.27-6.84   c-0.23-0.1-0.5-0.07-0.71,0.07c-0.21,0.14-0.34,0.37-0.34,0.63c0,6.31,0,12.62,0,18.93c-2.54,1.07-5.09,2.14-7.63,3.21   c-0.28,0.12-0.46,0.39-0.46,0.69c-0.03,14.5-0.05,29.01-0.08,43.52h-1.59V42.96c0-0.2-0.08-0.39-0.22-0.53   c-0.14-0.14-0.33-0.22-0.53-0.22h-1.01v-4.9c0-0.2-0.08-0.39-0.22-0.53c-0.14-0.14-0.33-0.22-0.53-0.22h-0.55v-3.36   c0-0.2-0.08-0.39-0.22-0.53c-0.14-0.14-0.33-0.22-0.53-0.22h-2.67v-5.71c0-0.42-0.34-0.75-0.75-0.75c-0.42,0-0.75,0.34-0.75,0.75   v5.71h-2.67c-0.2,0-0.39,0.08-0.53,0.22c-0.14,0.14-0.22,0.33-0.22,0.53v3.36h-0.55c-0.2,0-0.39,0.08-0.53,0.22   c-0.14,0.14-0.22,0.33-0.22,0.53v4.9h-1.01c-0.2,0-0.39,0.08-0.53,0.22c-0.14,0.14-0.22,0.33-0.22,0.53v39.23h-3.15   c-0.55,0-1,0.45-1,1c0,0.55,0.45,1,1,1h52.71c0.55,0,1-0.45,1-1C72.36,82.64,71.91,82.19,71.35,82.19z M42.95,82.19l-1.51-3.4   c1.48-0.67,3.93-1.52,7.04-1.52c1.4,0,4.06,0.19,7.03,1.53L54,82.19H42.95z M39.46,29.89c4.92-2.07,9.84-4.14,14.76-6.21   c0,5.73,0,11.45,0,17.18h-8.75c-0.2,0-0.39,0.08-0.53,0.22c-0.14,0.14-0.22,0.33-0.22,0.53v4.44c0,8.95,0,17.9,0,26.86h-5.34   C39.4,58.56,39.43,44.22,39.46,29.89z M60.4,74.4v7.79h-4.75l1.52-3.43c0,0,0,0,0,0c0,0,0,0,0,0l1.94-4.36H60.4z M66.22,82.19   h-2.29v-5.12h2.29V82.19z M56.12,77.42c-0.73-0.33-1.44-0.6-2.13-0.81v-2.2h3.47L56.12,77.42z M52.99,76.32   c-1.62-0.4-3.01-0.52-4.01-0.55V74.4h4.01V76.32z M47.98,75.78c-1.5,0.04-2.85,0.25-4.01,0.55V74.4h4.01V75.78z M42.96,74.4v2.2   c-0.83,0.26-1.55,0.54-2.13,0.8l-1.34-3.01H42.96z M68.61,82.19h-1.39v-5.62l-0.15-0.35l-0.35-0.15h-3.29l-0.35,0.15l-0.15,0.35   v5.62H61.9V58.71h6.71V82.19z M61.15,57.21c-0.2,0-0.39,0.08-0.53,0.22c-0.14,0.14-0.22,0.33-0.22,0.53V72.9h-1.76c0,0,0,0,0,0   H46.22c0-8.7,0-17.4,0-26.1h20.6c0.01,3.47,0.02,6.94,0.03,10.41H61.15z M66.85,45.29H46.22v-2.93h20.63V45.29z M47.55,7.69   c4.92,2.07,9.84,4.14,14.76,6.21c0.02,8.99,0.03,17.97,0.05,26.96h-6.64c0-6.1,0-12.21,0-18.31c0-0.25-0.13-0.49-0.34-0.63   s-0.48-0.16-0.71-0.07c-2.38,1-4.75,2-7.13,3C47.55,19.13,47.55,13.41,47.55,7.69z M37.84,74.4l3.46,7.79h-5.03V74.4H37.84z    M30.18,82.19h-2.29v-5.51h2.29V82.19z M26.37,33.94h5.33v2.61h-5.33V33.94z M25.07,38.06h0.55h6.84h0.55v4.15h-7.95V38.06z    M23.3,43.71h1.01h9.45h1.01v38.48h-3.59v-6.01l-0.15-0.35l-0.35-0.15h-3.29l-0.35,0.15l-0.15,0.35v6.01H23.3V43.71z"/><path d="M64.37,53.39h-3.89c-0.28,0-0.5,0.22-0.5,0.5c0,0.28,0.22,0.5,0.5,0.5h3.89c0.28,0,0.5-0.22,0.5-0.5   C64.87,53.62,64.65,53.39,64.37,53.39z"/><path d="M60.48,50.33h3.89c0.28,0,0.5-0.22,0.5-0.5c0-0.28-0.22-0.5-0.5-0.5h-3.89c-0.28,0-0.5,0.22-0.5,0.5   C59.98,50.1,60.2,50.33,60.48,50.33z"/><path d="M67.2,69.65h-3.89c-0.28,0-0.5,0.22-0.5,0.5c0,0.28,0.22,0.5,0.5,0.5h3.89c0.28,0,0.5-0.22,0.5-0.5   C67.7,69.88,67.48,69.65,67.2,69.65z"/><path d="M67.2,65.59h-3.89c-0.28,0-0.5,0.22-0.5,0.5s0.22,0.5,0.5,0.5h3.89c0.28,0,0.5-0.22,0.5-0.5S67.48,65.59,67.2,65.59z"/><path d="M67.2,61.52h-3.89c-0.28,0-0.5,0.22-0.5,0.5c0,0.28,0.22,0.5,0.5,0.5h3.89c0.28,0,0.5-0.22,0.5-0.5   C67.7,61.75,67.48,61.52,67.2,61.52z"/><path d="M58.35,69.65h-3.89c-0.28,0-0.5,0.22-0.5,0.5c0,0.28,0.22,0.5,0.5,0.5h3.89c0.28,0,0.5-0.22,0.5-0.5   C58.85,69.88,58.63,69.65,58.35,69.65z"/><path d="M58.35,65.59h-3.89c-0.28,0-0.5,0.22-0.5,0.5s0.22,0.5,0.5,0.5h3.89c0.28,0,0.5-0.22,0.5-0.5S58.63,65.59,58.35,65.59z"/><path d="M52.33,69.65h-3.89c-0.28,0-0.5,0.22-0.5,0.5c0,0.28,0.22,0.5,0.5,0.5h3.89c0.28,0,0.5-0.22,0.5-0.5   C52.84,69.88,52.61,69.65,52.33,69.65z"/><path d="M52.33,65.59h-3.89c-0.28,0-0.5,0.22-0.5,0.5s0.22,0.5,0.5,0.5h3.89c0.28,0,0.5-0.22,0.5-0.5S52.61,65.59,52.33,65.59z"/><path d="M58.35,61.52h-3.89c-0.28,0-0.5,0.22-0.5,0.5c0,0.28,0.22,0.5,0.5,0.5h3.89c0.28,0,0.5-0.22,0.5-0.5   C58.85,61.75,58.63,61.52,58.35,61.52z"/><path d="M58.35,57.46h-3.89c-0.28,0-0.5,0.22-0.5,0.5c0,0.28,0.22,0.5,0.5,0.5h3.89c0.28,0,0.5-0.22,0.5-0.5   C58.85,57.68,58.63,57.46,58.35,57.46z"/><path d="M52.33,61.52h-3.89c-0.28,0-0.5,0.22-0.5,0.5c0,0.28,0.22,0.5,0.5,0.5h3.89c0.28,0,0.5-0.22,0.5-0.5   C52.84,61.75,52.61,61.52,52.33,61.52z"/><path d="M52.33,57.46h-3.89c-0.28,0-0.5,0.22-0.5,0.5c0,0.28,0.22,0.5,0.5,0.5h3.89c0.28,0,0.5-0.22,0.5-0.5   C52.84,57.68,52.61,57.46,52.33,57.46z"/><path d="M58.35,53.39h-3.89c-0.28,0-0.5,0.22-0.5,0.5c0,0.28,0.22,0.5,0.5,0.5h3.89c0.28,0,0.5-0.22,0.5-0.5   C58.85,53.62,58.63,53.39,58.35,53.39z"/><path d="M58.35,49.33h-3.89c-0.28,0-0.5,0.22-0.5,0.5c0,0.28,0.22,0.5,0.5,0.5h3.89c0.28,0,0.5-0.22,0.5-0.5   C58.85,49.55,58.63,49.33,58.35,49.33z"/><path d="M52.33,53.39h-3.89c-0.28,0-0.5,0.22-0.5,0.5c0,0.28,0.22,0.5,0.5,0.5h3.89c0.28,0,0.5-0.22,0.5-0.5   C52.84,53.62,52.61,53.39,52.33,53.39z"/><path d="M52.33,49.33h-3.89c-0.28,0-0.5,0.22-0.5,0.5c0,0.28,0.22,0.5,0.5,0.5h3.89c0.28,0,0.5-0.22,0.5-0.5   C52.84,49.55,52.61,49.33,52.33,49.33z"/><path d="M31.86,74c0.28,0,0.5-0.22,0.5-0.5V50.1c0-0.28-0.22-0.5-0.5-0.5s-0.5,0.22-0.5,0.5v23.4C31.36,73.77,31.58,74,31.86,74z"/><path d="M26.22,49.6c-0.28,0-0.5,0.22-0.5,0.5v23.4c0,0.28,0.22,0.5,0.5,0.5c0.28,0,0.5-0.22,0.5-0.5V50.1   C26.72,49.82,26.49,49.6,26.22,49.6z"/><path d="M29.04,74c0.28,0,0.5-0.22,0.5-0.5V47.06c0-0.28-0.22-0.5-0.5-0.5s-0.5,0.22-0.5,0.5v26.43C28.54,73.77,28.76,74,29.04,74z   "/><path d="M46.8,38.82c0.28,0,0.5-0.22,0.5-0.5v-7.89c0-0.28-0.22-0.5-0.5-0.5c-0.28,0-0.5,0.22-0.5,0.5v7.89   C46.3,38.59,46.52,38.82,46.8,38.82z"/><path d="M51.75,38.82c0.28,0,0.5-0.22,0.5-0.5V28.06c0-0.28-0.22-0.5-0.5-0.5c-0.28,0-0.5,0.22-0.5,0.5v10.25   C51.25,38.59,51.48,38.82,51.75,38.82z"/><path d="M42,32.22c-0.28,0-0.5,0.22-0.5,0.5v37.43c0,0.28,0.22,0.5,0.5,0.5c0.28,0,0.5-0.22,0.5-0.5V32.73   C42.5,32.45,42.28,32.22,42,32.22z"/><path d="M60.8,17.51c0-0.28-0.22-0.5-0.5-0.5H49.62c-0.28,0-0.5,0.22-0.5,0.5c0,0.28,0.22,0.5,0.5,0.5H60.3   C60.58,18.01,60.8,17.79,60.8,17.51z"/></g></svg>