<?xml version="1.0" encoding="utf-8"?>
<!-- Generator: Adobe Illustrator 23.0.2, SVG Export Plug-In . SVG Version: 6.00 Build 0)  -->
<svg version="1.1" id="Layer_1" xmlns="http://www.w3.org/2000/svg" xmlns:xlink="http://www.w3.org/1999/xlink" x="0px" y="0px"
	 viewBox="0 0 244.73 62.87" style="enable-background:new 0 0 244.73 62.87;" xml:space="preserve">
<style type="text/css">
	.st0{fill:#1F3566;}
</style>
<polygon class="st0" points="23.14,3.72 4.49,56.46 50,56.46 54.9,42.68 27.02,42.68 40.72,3.72 "/>
<path class="st0" d="M82.33,23.34l5.09,13.3h-9.9L82.33,23.34z M71.21,3.72L52.88,56.46h17.56l3.14-8.24l18.25,0.02l3.04,8.21h17.56
	L92.87,3.72H71.21z"/>
<polygon class="st0" points="191.07,3.72 191.07,17.99 204.71,17.99 204.71,56.46 220.76,56.46 220.76,17.99 234.54,17.99 
	234.54,3.72 "/>
<path class="st0" d="M173.64,56.98h-10.81c-10.07,0-19.03-5.79-18.95-17.14V20.28c0-9.99,8.45-16.56,18.53-16.56h10.81
	c10.07,0,18.1,6.57,18.1,16.56v19.56C191.79,49.87,183.71,56.98,173.64,56.98 M175.18,34.74v-9.07c0-5.37-1.19-7.02-5.78-7.67h-3.45
	c-4.67,0.72-5.92,2.37-5.92,7.67v9.07c-0.16,5.65,1.62,7.95,6.06,7.95h3.45C173.16,42.58,175.28,41.48,175.18,34.74"/>
<path class="st0" d="M95.34,3.72h20.29h10.71c9.99,0,17.95,6.57,17.95,16.56v19.56c0.48,10.04-7.54,17.14-17.52,17.14h-11.11
	L95.34,3.72z M111.48,42.23h7.27h3.58c3.34,0,5.84-1.69,5.84-5.02v-0.56v-6.68v-6.53c0-3.33-2.66-5.2-5.99-5.2h-3.58h-6.78h-0.34
	v22.2V42.23z"/>
</svg>
