<?xml version="1.0" standalone="no"?>
<!DOCTYPE svg PUBLIC "-//W3C//DTD SVG 20010904//EN"
 "http://www.w3.org/TR/2001/REC-SVG-20010904/DTD/svg10.dtd">
<svg version="1.0" xmlns="http://www.w3.org/2000/svg"
 width="512.000000pt" height="512.000000pt" viewBox="0 0 512.000000 512.000000"
 preserveAspectRatio="xMidYMid meet">
<metadata>
Created by potrace 1.11, written by Peter Selinger 2001-2013
</metadata>
<g transform="translate(0.000000,512.000000) scale(0.100000,-0.100000)"
fill="#000000" stroke="none">
<path d="M365 2579 c-104 -297 -191 -544 -193 -549 -2 -6 171 -10 471 -10
l475 0 50 143 50 142 -288 5 -288 5 139 395 c76 217 139 398 139 403 0 4 -82
7 -182 7 l-183 0 -190 -541z"/>
<path d="M1367 2578 c-103 -299 -187 -546 -187 -551 0 -4 82 -6 182 -5 l183 3
30 82 30 83 190 0 191 0 29 -85 30 -85 184 0 c170 0 183 1 179 18 -4 12 -364
987 -395 1069 -4 10 -56 13 -232 13 l-226 0 -188 -542z m474 -11 l46 -122 -48
-3 c-27 -2 -71 -2 -98 0 l-48 3 46 127 c25 70 48 125 50 122 3 -3 26 -60 52
-127z"/>
<path d="M2060 3113 c1 -4 94 -253 208 -553 l208 -545 170 0 170 0 66 33 c76
37 150 112 169 170 16 52 26 59 34 24 8 -40 61 -113 109 -151 79 -63 130 -75
348 -79 162 -3 207 -1 255 13 113 33 196 105 234 205 17 45 19 80 19 320 l0
270 140 0 140 0 0 -400 0 -400 170 0 170 0 0 400 0 400 140 0 140 0 0 150 0
150 -455 0 -455 0 0 -117 0 -118 -21 42 c-31 64 -93 121 -167 156 l-67 32
-220 0 c-209 0 -223 -1 -280 -24 -77 -31 -175 -126 -196 -190 l-15 -44 -32 66
c-39 79 -101 137 -181 169 -54 22 -67 23 -428 26 -205 2 -373 -1 -373 -5z
m1622 -332 l29 -33 -3 -194 c-3 -186 -4 -194 -26 -216 -19 -19 -35 -23 -103
-27 -159 -7 -174 15 -174 254 0 149 2 175 18 199 28 42 71 57 156 53 69 -2 75
-5 103 -36z m-992 14 c44 -23 52 -66 48 -252 -3 -162 -3 -163 -31 -190 -27
-28 -30 -28 -167 -31 l-140 -4 0 246 0 246 130 0 c97 0 139 -4 160 -15z"/>
</g>
</svg>
