<?xml version="1.0" encoding="UTF-8"?>
<svg width="32px" height="32px" viewBox="0 0 32 32" version="1.1" xmlns="http://www.w3.org/2000/svg" xmlns:xlink="http://www.w3.org/1999/xlink">
    <title>scooter</title>
    <defs></defs>
    <g id="scooter" stroke="none" stroke-width="1" fill="none" fill-rule="evenodd">
        <g id="Group" transform="translate(7.000000, 7.000000)" fill="#FFFFFF">
            <path d="M2.6081092,11.4828247 C2.02946605,11.4828247 2.02946605,10.5570408 2.6081092,10.5570408 C3.99685277,10.5570408 5.21200339,11.3092402 5.84851086,12.5243317 L12.5029071,12.5243317 L13.7759221,10.9042097 L10.824842,2.45643111 L9.78328431,2.80360009 C9.20464115,2.97718458 8.85745526,2.05140062 9.49396273,1.87781613 L12.4450428,0.836309174 C13.0815503,0.662724682 13.3708719,1.58850864 12.7922287,1.76209314 L11.750671,2.10926212 L15.2803943,12.3507472 C16.3219519,12.2928857 17.1899167,13.1029467 17.1899167,14.1444536 C17.1899167,15.1280991 16.3798163,15.93816 15.3961229,15.93816 C14.4124295,15.93816 13.6023291,15.1280991 13.6023291,14.1444536 C13.6023291,13.5658386 13.8916507,12.9872237 14.3545652,12.6400547 L14.123108,12.0035782 C13.4866005,12.8136392 12.850093,13.6237001 12.2135856,14.4337611 C12.0978569,14.5494841 11.9821283,14.6652071 11.8085353,14.6652071 L5.79064655,14.6652071 C5.50132497,14.6652071 5.26986771,14.4337611 5.26986771,14.1444536 C5.26986771,12.6979162 4.1125814,11.4828247 2.6081092,11.4828247 Z" id="Path"></path>
            <path d="M2.60797471,12.3471721 C3.6492096,12.3471721 4.45905895,13.156982 4.45905895,14.1403226 C4.45905895,15.1236632 3.6492096,15.9334732 2.60797471,15.9334732 C1.6245862,15.9334732 0.814736842,15.1236632 0.814736842,14.1403226 C0.814736842,13.156982 1.6245862,12.3471721 2.60797471,12.3471721 Z" id="Path"></path>
        </g>
    </g>
</svg>